<mxfile host="app.diagrams.net" agent="Mozilla/5.0 (Windows NT 10.0; Win64; x64) AppleWebKit/537.36 (KHTML, like Gecko) Chrome/136.0.0.0 Safari/537.36" version="27.0.9">
  <diagram name="Page-1" id="sqgKExxTLfJr2XsGwPO1">
    <mxGraphModel dx="731" dy="198" grid="1" gridSize="10" guides="1" tooltips="1" connect="1" arrows="1" fold="1" page="1" pageScale="1" pageWidth="850" pageHeight="1100" math="0" shadow="0">
      <root>
        <mxCell id="0" />
        <mxCell id="1" parent="0" />
        <mxCell id="OG8gn5iMKxCEzLJPPmox-4" value="" style="rounded=0;whiteSpace=wrap;html=1;dashed=1;dashPattern=8 8;fillColor=#647687;strokeColor=#314354;fontColor=#ffffff;" parent="1" vertex="1">
          <mxGeometry x="2650" y="2160" width="1010" height="770" as="geometry" />
        </mxCell>
        <object placeholders="1" c4Name="Inventory Management System " c4Type="External system for stock control" c4Description="Description of external software system." label="&lt;font style=&quot;font-size: 16px&quot;&gt;&lt;b&gt;%c4Name%&lt;/b&gt;&lt;/font&gt;&lt;div&gt;[%c4Type%]&lt;/div&gt;&lt;br&gt;&lt;div&gt;&lt;font style=&quot;font-size: 11px&quot;&gt;&lt;font color=&quot;#cccccc&quot;&gt;%c4Description%&lt;/font&gt;&lt;/div&gt;" id="drQIs82g9xxdgHSHIDGh-23">
          <mxCell style="rounded=1;whiteSpace=wrap;html=1;labelBackgroundColor=none;fillColor=#a20025;fontColor=#ffffff;align=center;arcSize=0;strokeColor=#6F0000;metaEdit=1;resizable=0;points=[[0.25,0,0],[0.5,0,0],[0.75,0,0],[1,0.25,0],[1,0.5,0],[1,0.75,0],[0.75,1,0],[0.5,1,0],[0.25,1,0],[0,0.75,0],[0,0.5,0],[0,0.25,0]];" parent="1" vertex="1">
            <mxGeometry x="2390" y="2230" width="240" height="120" as="geometry" />
          </mxCell>
        </object>
        <object placeholders="1" c4Name="SMS notification system" c4Type="Software System" c4Description="Sends a SMS, whenever system is trying to alert user" label="&lt;font style=&quot;font-size: 16px&quot;&gt;&lt;b&gt;%c4Name%&lt;/b&gt;&lt;/font&gt;&lt;div&gt;[%c4Type%]&lt;/div&gt;&lt;br&gt;&lt;div&gt;&lt;font style=&quot;font-size: 11px&quot;&gt;&lt;font color=&quot;#cccccc&quot;&gt;%c4Description%&lt;/font&gt;&lt;/div&gt;" id="drQIs82g9xxdgHSHIDGh-26">
          <mxCell style="rounded=1;whiteSpace=wrap;html=1;labelBackgroundColor=none;fillColor=#a20025;fontColor=#ffffff;align=center;arcSize=10;strokeColor=#6F0000;metaEdit=1;resizable=0;points=[[0.25,0,0],[0.5,0,0],[0.75,0,0],[1,0.25,0],[1,0.5,0],[1,0.75,0],[0.75,1,0],[0.5,1,0],[0.25,1,0],[0,0.75,0],[0,0.5,0],[0,0.25,0]];" parent="1" vertex="1">
            <mxGeometry x="3750" y="2230" width="240" height="120" as="geometry" />
          </mxCell>
        </object>
        <object placeholders="1" c4Name="Dashboard Controller" c4Type="Container: Web Application" c4Description="serves dashboard data" label="&lt;font style=&quot;font-size: 16px&quot;&gt;&lt;b&gt;%c4Name%&lt;/b&gt;&lt;/font&gt;&lt;div&gt;[%c4Type%]&lt;/div&gt;&lt;br&gt;&lt;div&gt;&lt;font style=&quot;font-size: 11px&quot;&gt;&lt;font color=&quot;#cccccc&quot;&gt;%c4Description%&lt;/font&gt;&lt;/div&gt;" id="OG8gn5iMKxCEzLJPPmox-3">
          <mxCell style="rounded=1;whiteSpace=wrap;html=1;labelBackgroundColor=none;fillColor=#a20025;fontColor=#ffffff;align=center;arcSize=0;strokeColor=#6F0000;metaEdit=1;resizable=0;points=[[0.25,0,0],[0.5,0,0],[0.75,0,0],[1,0.25,0],[1,0.5,0],[1,0.75,0],[0.75,1,0],[0.5,1,0],[0.25,1,0],[0,0.75,0],[0,0.5,0],[0,0.25,0]];imageWidth=200;" parent="1" vertex="1">
            <mxGeometry x="2390" y="2700" width="240" height="120" as="geometry" />
          </mxCell>
        </object>
        <mxCell id="OG8gn5iMKxCEzLJPPmox-15" style="edgeStyle=orthogonalEdgeStyle;rounded=0;orthogonalLoop=1;jettySize=auto;html=1;exitX=0.5;exitY=0;exitDx=0;exitDy=0;exitPerimeter=0;entryX=0.5;entryY=0;entryDx=0;entryDy=0;entryPerimeter=0;" parent="1" edge="1">
          <mxGeometry relative="1" as="geometry">
            <mxPoint x="3120" y="1960" as="sourcePoint" />
            <mxPoint x="3120" y="1960" as="targetPoint" />
          </mxGeometry>
        </mxCell>
        <mxCell id="XHwyafxk4laVPuKczVM2-3" value="&lt;div&gt;&lt;b&gt;&lt;font style=&quot;font-size: 16px;&quot;&gt;&lt;br&gt;&lt;/font&gt;&lt;/b&gt;&lt;/div&gt;&lt;b&gt;&lt;font style=&quot;font-size: 16px;&quot;&gt;&lt;div&gt;&lt;b&gt;&lt;font style=&quot;font-size: 16px;&quot;&gt;&lt;br&gt;&lt;/font&gt;&lt;/b&gt;&lt;/div&gt;Database&lt;/font&gt;&lt;/b&gt;&lt;div&gt;[Container: Azure SQL Database]&lt;/div&gt;&lt;div&gt;&lt;span style=&quot;font-size: 11px; background-color: transparent; color: light-dark(rgb(255, 255, 255), rgb(18, 18, 18));&quot;&gt;Stores sensor readings, alert history, user data, as well as user registrtation inromation and credentials&lt;/span&gt;&lt;/div&gt;" style="strokeWidth=2;html=1;shape=mxgraph.flowchart.database;whiteSpace=wrap;fillColor=#a20025;fontColor=#ffffff;strokeColor=#6F0000;spacing=1;" vertex="1" parent="1">
          <mxGeometry x="2410" y="2410" width="200" height="130" as="geometry" />
        </mxCell>
        <object placeholders="1" c4Name="Security Component" c4Type="Component: .NET Service" c4Description="handles authentication/authorization" label="&lt;font style=&quot;font-size: 16px&quot;&gt;&lt;b&gt;%c4Name%&lt;/b&gt;&lt;/font&gt;&lt;div&gt;[%c4Type%]&lt;/div&gt;&lt;br&gt;&lt;div&gt;&lt;font style=&quot;font-size: 11px&quot;&gt;&lt;font color=&quot;#cccccc&quot;&gt;%c4Description%&lt;/font&gt;&lt;/div&gt;" id="XHwyafxk4laVPuKczVM2-4">
          <mxCell style="rounded=1;whiteSpace=wrap;html=1;labelBackgroundColor=none;fillColor=#1061B0;fontColor=#ffffff;align=center;arcSize=0;strokeColor=#0D5091;metaEdit=1;resizable=0;points=[[0.25,0,0],[0.5,0,0],[0.75,0,0],[1,0.25,0],[1,0.5,0],[1,0.75,0],[0.75,1,0],[0.5,1,0],[0.25,1,0],[0,0.75,0],[0,0.5,0],[0,0.25,0]];imageWidth=200;" vertex="1" parent="1">
            <mxGeometry x="3380" y="2700" width="240" height="120" as="geometry" />
          </mxCell>
        </object>
        <object placeholders="1" c4Name="User Management Component" c4Type="Component: .NET Service" c4Description="handles sign-in, registration, credentials" label="&lt;font style=&quot;font-size: 16px&quot;&gt;&lt;b&gt;%c4Name%&lt;/b&gt;&lt;/font&gt;&lt;div&gt;[%c4Type%]&lt;/div&gt;&lt;br&gt;&lt;div&gt;&lt;font style=&quot;font-size: 11px&quot;&gt;&lt;font color=&quot;#cccccc&quot;&gt;%c4Description%&lt;/font&gt;&lt;/div&gt;" id="XHwyafxk4laVPuKczVM2-5">
          <mxCell style="rounded=1;whiteSpace=wrap;html=1;labelBackgroundColor=none;fillColor=#1061B0;fontColor=#ffffff;align=center;arcSize=0;strokeColor=#0D5091;metaEdit=1;resizable=0;points=[[0.25,0,0],[0.5,0,0],[0.75,0,0],[1,0.25,0],[1,0.5,0],[1,0.75,0],[0.75,1,0],[0.5,1,0],[0.25,1,0],[0,0.75,0],[0,0.5,0],[0,0.25,0]];imageWidth=200;" vertex="1" parent="1">
            <mxGeometry x="2880" y="2700" width="240" height="120" as="geometry" />
          </mxCell>
        </object>
        <object placeholders="1" c4Name="Notification Service" c4Type="Component: .NET Service" c4Description="prepares notifications, interacts with SMS system" label="&lt;font style=&quot;font-size: 16px&quot;&gt;&lt;b&gt;%c4Name%&lt;/b&gt;&lt;/font&gt;&lt;div&gt;[%c4Type%]&lt;/div&gt;&lt;br&gt;&lt;div&gt;&lt;font style=&quot;font-size: 11px&quot;&gt;&lt;font color=&quot;#cccccc&quot;&gt;%c4Description%&lt;/font&gt;&lt;/div&gt;" id="XHwyafxk4laVPuKczVM2-6">
          <mxCell style="rounded=1;whiteSpace=wrap;html=1;labelBackgroundColor=none;fillColor=#1061B0;fontColor=#ffffff;align=center;arcSize=0;strokeColor=#0D5091;metaEdit=1;resizable=0;points=[[0.25,0,0],[0.5,0,0],[0.75,0,0],[1,0.25,0],[1,0.5,0],[1,0.75,0],[0.75,1,0],[0.5,1,0],[0.25,1,0],[0,0.75,0],[0,0.5,0],[0,0.25,0]];imageWidth=200;" vertex="1" parent="1">
            <mxGeometry x="3380" y="2230" width="240" height="120" as="geometry" />
          </mxCell>
        </object>
        <object placeholders="1" c4Name="Danger Data Handler" c4Type="Component: .NET Service" c4Description="processes abnormal sensor data" label="&lt;font style=&quot;font-size: 16px&quot;&gt;&lt;b&gt;%c4Name%&lt;/b&gt;&lt;/font&gt;&lt;div&gt;[%c4Type%]&lt;/div&gt;&lt;br&gt;&lt;div&gt;&lt;font style=&quot;font-size: 11px&quot;&gt;&lt;font color=&quot;#cccccc&quot;&gt;%c4Description%&lt;/font&gt;&lt;/div&gt;" id="XHwyafxk4laVPuKczVM2-8">
          <mxCell style="rounded=1;whiteSpace=wrap;html=1;labelBackgroundColor=none;fillColor=#1061B0;fontColor=#ffffff;align=center;arcSize=0;strokeColor=#0D5091;metaEdit=1;resizable=0;points=[[0.25,0,0],[0.5,0,0],[0.75,0,0],[1,0.25,0],[1,0.5,0],[1,0.75,0],[0.75,1,0],[0.5,1,0],[0.25,1,0],[0,0.75,0],[0,0.5,0],[0,0.25,0]];imageWidth=200;" vertex="1" parent="1">
            <mxGeometry x="3000" y="2230" width="240" height="120" as="geometry" />
          </mxCell>
        </object>
        <mxCell id="XHwyafxk4laVPuKczVM2-9" value="" style="endArrow=classic;html=1;rounded=0;entryX=0.5;entryY=0;entryDx=0;entryDy=0;entryPerimeter=0;exitX=0.5;exitY=1;exitDx=0;exitDy=0;exitPerimeter=0;" edge="1" parent="1" target="XHwyafxk4laVPuKczVM2-8">
          <mxGeometry width="50" height="50" relative="1" as="geometry">
            <mxPoint x="3120" y="2080" as="sourcePoint" />
            <mxPoint x="2970" y="2470" as="targetPoint" />
          </mxGeometry>
        </mxCell>
        <mxCell id="XHwyafxk4laVPuKczVM2-11" value="" style="endArrow=classic;html=1;rounded=0;exitX=0;exitY=0.5;exitDx=0;exitDy=0;exitPerimeter=0;entryX=1;entryY=0.5;entryDx=0;entryDy=0;entryPerimeter=0;" edge="1" parent="1" source="XHwyafxk4laVPuKczVM2-8" target="drQIs82g9xxdgHSHIDGh-23">
          <mxGeometry width="50" height="50" relative="1" as="geometry">
            <mxPoint x="3180" y="2530" as="sourcePoint" />
            <mxPoint x="3230" y="2480" as="targetPoint" />
          </mxGeometry>
        </mxCell>
        <mxCell id="XHwyafxk4laVPuKczVM2-12" value="" style="endArrow=classic;html=1;rounded=0;entryX=1;entryY=0.5;entryDx=0;entryDy=0;entryPerimeter=0;exitX=0.5;exitY=1;exitDx=0;exitDy=0;exitPerimeter=0;" edge="1" parent="1" source="XHwyafxk4laVPuKczVM2-8" target="XHwyafxk4laVPuKczVM2-3">
          <mxGeometry width="50" height="50" relative="1" as="geometry">
            <mxPoint x="3180" y="2530" as="sourcePoint" />
            <mxPoint x="3230" y="2480" as="targetPoint" />
            <Array as="points">
              <mxPoint x="3120" y="2475" />
            </Array>
          </mxGeometry>
        </mxCell>
        <mxCell id="XHwyafxk4laVPuKczVM2-15" value="" style="endArrow=classic;html=1;rounded=0;entryX=0;entryY=0.5;entryDx=0;entryDy=0;entryPerimeter=0;exitX=1;exitY=0.5;exitDx=0;exitDy=0;exitPerimeter=0;" edge="1" parent="1" source="OG8gn5iMKxCEzLJPPmox-3" target="XHwyafxk4laVPuKczVM2-5">
          <mxGeometry width="50" height="50" relative="1" as="geometry">
            <mxPoint x="3180" y="2530" as="sourcePoint" />
            <mxPoint x="3230" y="2480" as="targetPoint" />
          </mxGeometry>
        </mxCell>
        <mxCell id="XHwyafxk4laVPuKczVM2-16" value="" style="endArrow=classic;html=1;rounded=0;exitX=1;exitY=0.5;exitDx=0;exitDy=0;exitPerimeter=0;entryX=0;entryY=0.5;entryDx=0;entryDy=0;entryPerimeter=0;" edge="1" parent="1" source="XHwyafxk4laVPuKczVM2-8" target="XHwyafxk4laVPuKczVM2-6">
          <mxGeometry width="50" height="50" relative="1" as="geometry">
            <mxPoint x="3420" y="2560" as="sourcePoint" />
            <mxPoint x="3470" y="2510" as="targetPoint" />
          </mxGeometry>
        </mxCell>
        <mxCell id="XHwyafxk4laVPuKczVM2-17" value="" style="endArrow=classic;html=1;rounded=0;entryX=0;entryY=0.5;entryDx=0;entryDy=0;entryPerimeter=0;exitX=1;exitY=0.5;exitDx=0;exitDy=0;exitPerimeter=0;" edge="1" parent="1" source="XHwyafxk4laVPuKczVM2-6" target="drQIs82g9xxdgHSHIDGh-26">
          <mxGeometry width="50" height="50" relative="1" as="geometry">
            <mxPoint x="3420" y="2560" as="sourcePoint" />
            <mxPoint x="3470" y="2510" as="targetPoint" />
          </mxGeometry>
        </mxCell>
        <object placeholders="1" c4Name="IoT Device Gateway" c4Type="Software System" c4Description="Receives data from physical sensors, forwards to backend/API." label="&lt;font style=&quot;font-size: 16px&quot;&gt;&lt;b&gt;%c4Name%&lt;/b&gt;&lt;/font&gt;&lt;div&gt;[%c4Type%]&lt;/div&gt;&lt;br&gt;&lt;div&gt;&lt;font style=&quot;font-size: 11px&quot;&gt;&lt;font color=&quot;#cccccc&quot;&gt;%c4Description%&lt;/font&gt;&lt;/div&gt;" id="XHwyafxk4laVPuKczVM2-18">
          <mxCell style="rounded=1;whiteSpace=wrap;html=1;labelBackgroundColor=none;fillColor=#a20025;fontColor=#ffffff;align=center;arcSize=0;strokeColor=#6F0000;metaEdit=1;resizable=0;points=[[0.25,0,0],[0.5,0,0],[0.75,0,0],[1,0.25,0],[1,0.5,0],[1,0.75,0],[0.75,1,0],[0.5,1,0],[0.25,1,0],[0,0.75,0],[0,0.5,0],[0,0.25,0]];" vertex="1" parent="1">
            <mxGeometry x="3000" y="2000" width="240" height="120" as="geometry" />
          </mxCell>
        </object>
        <mxCell id="XHwyafxk4laVPuKczVM2-23" value="" style="edgeStyle=orthogonalEdgeStyle;rounded=0;orthogonalLoop=1;jettySize=auto;html=1;" edge="1" parent="1" source="XHwyafxk4laVPuKczVM2-22" target="XHwyafxk4laVPuKczVM2-8">
          <mxGeometry relative="1" as="geometry" />
        </mxCell>
        <mxCell id="XHwyafxk4laVPuKczVM2-19" value="" style="endArrow=classic;html=1;rounded=0;entryX=0;entryY=0.5;entryDx=0;entryDy=0;entryPerimeter=0;exitX=1;exitY=0.5;exitDx=0;exitDy=0;exitPerimeter=0;" edge="1" parent="1" source="XHwyafxk4laVPuKczVM2-5" target="XHwyafxk4laVPuKczVM2-4">
          <mxGeometry width="50" height="50" relative="1" as="geometry">
            <mxPoint x="3220" y="2490" as="sourcePoint" />
            <mxPoint x="3270" y="2440" as="targetPoint" />
            <Array as="points" />
          </mxGeometry>
        </mxCell>
        <mxCell id="XHwyafxk4laVPuKczVM2-22" value="Sends sensor data" style="text;html=1;align=center;verticalAlign=middle;whiteSpace=wrap;rounded=0;" vertex="1" parent="1">
          <mxGeometry x="3050" y="2190" width="140" height="30" as="geometry" />
        </mxCell>
        <mxCell id="XHwyafxk4laVPuKczVM2-24" value="Stores abnormal logs" style="text;html=1;align=center;verticalAlign=middle;whiteSpace=wrap;rounded=0;" vertex="1" parent="1">
          <mxGeometry x="2855" y="2450" width="150" height="30" as="geometry" />
        </mxCell>
        <mxCell id="XHwyafxk4laVPuKczVM2-26" value="" style="endArrow=classic;html=1;rounded=0;entryX=0.5;entryY=0;entryDx=0;entryDy=0;entryPerimeter=0;exitX=0.5;exitY=1;exitDx=0;exitDy=0;exitPerimeter=0;" edge="1" parent="1" source="XHwyafxk4laVPuKczVM2-3" target="OG8gn5iMKxCEzLJPPmox-3">
          <mxGeometry width="50" height="50" relative="1" as="geometry">
            <mxPoint x="2930" y="2580" as="sourcePoint" />
            <mxPoint x="2980" y="2530" as="targetPoint" />
          </mxGeometry>
        </mxCell>
        <mxCell id="XHwyafxk4laVPuKczVM2-27" value="" style="endArrow=classic;html=1;rounded=0;exitX=0.5;exitY=0;exitDx=0;exitDy=0;exitPerimeter=0;entryX=1;entryY=0.85;entryDx=0;entryDy=0;entryPerimeter=0;" edge="1" parent="1" source="XHwyafxk4laVPuKczVM2-5" target="XHwyafxk4laVPuKczVM2-3">
          <mxGeometry width="50" height="50" relative="1" as="geometry">
            <mxPoint x="2930" y="2580" as="sourcePoint" />
            <mxPoint x="2980" y="2530" as="targetPoint" />
            <Array as="points">
              <mxPoint x="3000" y="2521" />
            </Array>
          </mxGeometry>
        </mxCell>
        <mxCell id="XHwyafxk4laVPuKczVM2-28" value="" style="endArrow=classic;html=1;rounded=0;exitX=0.5;exitY=0;exitDx=0;exitDy=0;exitPerimeter=0;entryX=1;entryY=0.85;entryDx=0;entryDy=0;entryPerimeter=0;" edge="1" parent="1" source="XHwyafxk4laVPuKczVM2-4" target="XHwyafxk4laVPuKczVM2-3">
          <mxGeometry width="50" height="50" relative="1" as="geometry">
            <mxPoint x="2930" y="2580" as="sourcePoint" />
            <mxPoint x="2980" y="2530" as="targetPoint" />
            <Array as="points">
              <mxPoint x="3500" y="2521" />
            </Array>
          </mxGeometry>
        </mxCell>
        <mxCell id="XHwyafxk4laVPuKczVM2-29" value="Reads/Writres user data" style="text;html=1;align=center;verticalAlign=middle;whiteSpace=wrap;rounded=0;" vertex="1" parent="1">
          <mxGeometry x="2840" y="2600" width="180" height="30" as="geometry" />
        </mxCell>
        <mxCell id="XHwyafxk4laVPuKczVM2-30" value="Reads/Writes credentials" style="text;html=1;align=center;verticalAlign=middle;whiteSpace=wrap;rounded=0;" vertex="1" parent="1">
          <mxGeometry x="3280" y="2600" width="220" height="30" as="geometry" />
        </mxCell>
        <mxCell id="XHwyafxk4laVPuKczVM2-31" value="Authenticate users" style="text;html=1;align=center;verticalAlign=middle;whiteSpace=wrap;rounded=0;" vertex="1" parent="1">
          <mxGeometry x="3170" y="2730" width="170" height="30" as="geometry" />
        </mxCell>
        <mxCell id="XHwyafxk4laVPuKczVM2-32" value="Sends abnormal data to external service" style="text;html=1;align=center;verticalAlign=middle;whiteSpace=wrap;rounded=0;" vertex="1" parent="1">
          <mxGeometry x="2730" y="2260" width="220" height="30" as="geometry" />
        </mxCell>
        <mxCell id="XHwyafxk4laVPuKczVM2-33" value="Triggers alert" style="text;html=1;align=center;verticalAlign=middle;whiteSpace=wrap;rounded=0;" vertex="1" parent="1">
          <mxGeometry x="3250" y="2260" width="120" height="30" as="geometry" />
        </mxCell>
        <mxCell id="XHwyafxk4laVPuKczVM2-34" value="Sends SMS" style="text;html=1;align=center;verticalAlign=middle;whiteSpace=wrap;rounded=0;" vertex="1" parent="1">
          <mxGeometry x="3630" y="2260" width="90" height="30" as="geometry" />
        </mxCell>
      </root>
    </mxGraphModel>
  </diagram>
</mxfile>
